<svg width="20" height="19" viewBox="0 0 20 19" fill="none" xmlns="http://www.w3.org/2000/svg">
<path fill-rule="evenodd" clip-rule="evenodd" d="M19.2576 17.1968L13.9034 11.9728C14.7342 10.7814 15.2881 9.31497 15.2881 7.75693C15.2881 3.63272 11.8725 0.333344 7.81074 0.333344C3.65663 0.333344 0.333344 3.63272 0.333344 7.75693C0.333344 11.7895 3.65663 15.1805 7.81074 15.1805C9.74932 15.1805 11.5033 14.4473 12.7957 13.1642L18.0575 18.3882C18.8884 19.2131 19.9961 18.0216 19.2576 17.1968ZM7.81074 1.98303C10.9494 1.98303 13.6265 4.54921 13.6265 7.75693C13.6265 10.873 10.9494 13.5308 7.81074 13.5308C4.57976 13.5308 1.99499 10.873 1.99499 7.75693C1.99499 4.54921 4.57976 1.98303 7.81074 1.98303Z" fill="white"/>
</svg>
